<?xml version="1.0"?>
<svg xmlns="http://www.w3.org/2000/svg" xmlns:xlink="http://www.w3.org/1999/xlink" xmlns:svgjs="http://svgjs.com/svgjs" version="1.1" width="512" height="512" x="0" y="0" viewBox="0 0 510 510" style="enable-background:new 0 0 512 512" xml:space="preserve" class=""><g><path xmlns="http://www.w3.org/2000/svg" d="m385.718 255h-.001c-11.515 0-22.033 4.347-30 11.486-7.967-7.14-18.485-11.486-30-11.486s-22.033 4.347-30 11.486c-7.967-7.14-18.485-11.486-30-11.486-5.257 0-10.307.906-15 2.57v-26.342c19.931-8.106 37.667-21.615 50.723-38.856 15.883-20.975 24.277-46.001 24.277-72.373 0-66.168-53.832-120-120-120s-120 53.832-120 120c0 26.372 8.396 51.398 24.278 72.373 13.055 17.24 30.791 30.749 50.722 38.856v71.152l-2.613-3.484c-12.39-19.465-39.244-24.022-58.985-10.858-18.664 12.443-25.174 36.957-15.142 57.021l65.887 131.775c10.229 20.457 30.792 33.166 53.664 33.166h167.188c33.084 0 60-26.916 60-60v-150c.001-24.813-20.186-45-44.998-45zm-208.278-124.971c-6.782-19.096 7.236-38.906 26.664-39.984.005 0 .01-.001.016-.002 17.125-.918 31.598 12.746 31.598 29.957 0 3.47-.597 6.852-1.723 10.029-7.733-6.265-17.573-10.029-28.278-10.029s-20.544 3.764-28.277 10.029zm-61.723-10.029c0-49.626 40.374-90 90-90s90 40.374 90 90c0 32.395-17.761 62.056-45 77.91v-32.91c0-1.693-.103-3.362-.285-5.008 9.8-10.924 15.285-25.055 15.285-39.992 0-30.775-23.285-56.581-53.822-59.683-.02-.003-.038-.006-.058-.007-36.677-3.752-68.616 26.33-65.949 63.996.947 13.331 6.263 25.817 15.115 35.685-.184 1.645-.286 3.315-.286 5.009v32.91c-27.239-15.854-45-45.515-45-77.91zm285 330c0 16.542-13.458 30-30 30h-167.189c-11.436 0-21.718-6.354-26.833-16.583l-65.887-131.774c-3.279-6.56-1.15-14.575 4.952-18.643 3.166-2.112 7.085-2.965 10.771-2.147 5.164 1.145 6.503 4.713 6.747 4.943l33.154 44.204h24.285v-195c0-8.271 6.729-15 15.001-15 8.271 0 14.999 6.729 14.999 15v135 45h30v-45c0-8.271 6.73-15 15.001-15s14.999 6.729 14.999 15v45h30v-45c0-8.271 6.73-15 15.001-15s14.999 6.729 14.999 15v45h30v-45c0-8.271 6.73-15 15.001-15s14.999 6.729 14.999 15z" fill="#ffffff" data-original="#000000" style="" class=""/></g></svg>
