<?xml version="1.0" encoding="iso-8859-1"?>
<!-- Generator: Adobe Illustrator 19.0.0, SVG Export Plug-In . SVG Version: 6.00 Build 0)  -->
<svg version="1.1" id="Capa_1" xmlns="http://www.w3.org/2000/svg" xmlns:xlink="http://www.w3.org/1999/xlink" x="0px" y="0px"
	 viewBox="0 0 511.997 511.997" style="enable-background:new 0 0 511.997 511.997;" xml:space="preserve">
<g>
	<g>
		<path d="M211.502,0c-22.405,0-43.706,7.073-61.6,20.456c-17.295,12.934-30.336,31.36-36.719,51.882
			c-1.233,3.962,0.98,8.175,4.943,9.407c3.962,1.24,8.175-0.98,9.408-4.943c5.45-17.521,16.59-33.257,31.369-44.309
			c15.276-11.425,33.464-17.463,52.599-17.463c48.479,0,87.92,39.44,87.92,87.92c0,2.65-0.119,5.323-0.354,7.946
			c-0.37,4.133,2.681,7.784,6.815,8.154c0.228,0.021,0.454,0.03,0.679,0.03c3.847,0,7.126-2.939,7.476-6.845
			c0.274-3.066,0.413-6.19,0.413-9.285C314.451,46.183,268.268,0,211.502,0z"/>
	</g>
</g>
<g>
	<g>
		<path d="M367.583,209.771h-1.65c-6.877,0-13.256,2.139-18.488,5.777c-4.236-13.196-16.597-22.534-30.91-22.534
			c-10.026,0-19.006,4.568-24.967,11.732c-5.961-7.164-14.941-11.732-24.967-11.732c-2.129,0-4.212,0.229-6.242,0.625
			c12.526-6.754,23.672-16.155,32.698-27.853c2.535-3.286,1.927-8.004-1.359-10.539c-3.285-2.538-8.005-1.927-10.54,1.359
			c-8.845,11.464-20.079,20.337-32.736,26.184v-20.228c19.932-12.388,33.241-34.468,33.241-59.613
			c0-38.687-31.474-70.161-70.16-70.161c-38.686,0-70.16,31.474-70.16,70.161c0,28.718,17.354,53.439,42.117,64.283l-0.012,18.982
			c-26.746-9.085-48.343-30.79-56.435-58.859c-1.15-3.989-5.313-6.293-9.302-5.139c-3.988,1.149-6.289,5.314-5.139,9.301
			c6.061,21.022,19.023,39.95,36.501,53.297c10.428,7.964,22.034,13.751,34.365,17.226l-0.029,45.682
			c-0.209-0.129-0.419-0.256-0.631-0.382c-12.381-7.325-27.551-5.323-37.747,4.987c-10.402,10.517-12.274,26.02-4.658,38.575
			c0.173,0.285,0.365,0.558,0.573,0.817l3.534,4.387c18.525,22.997,33.766,50.052,45.298,80.411
			c8.43,22.191,24.591,40.913,45.785,53.18l-5.56,74.224c-0.156,2.085,0.563,4.141,1.985,5.673c1.422,1.532,3.418,2.403,5.509,2.403
			h108.122c2.091,0,4.086-0.871,5.508-2.403c1.422-1.531,2.142-3.587,1.986-5.671l-5.544-74.226
			c32.294-18.696,52.152-51.958,52.152-87.93V241.435C399.72,223.976,385.303,209.771,367.583,209.771z M156.371,102.949
			c0-30.399,24.731-55.131,55.131-55.131c30.399,0,55.131,24.732,55.131,55.131c0,16.206-7.041,30.785-18.212,40.879v-3.05
			c0-6.926-2.176-13.443-5.876-18.831c3.402-5.533,5.37-12.038,5.37-18.998c0-20.078-16.335-36.413-36.413-36.413
			s-36.413,16.335-36.413,36.413c0,9.979,4.045,19.023,10.571,25.604c-1.426,3.686-2.184,7.631-2.184,11.645l-0.006,10.195
			C167.264,140.781,156.371,123.118,156.371,102.949z M232.886,102.949c0,3.065-0.652,5.979-1.82,8.615
			c-3.63-1.973-7.661-3.265-11.937-3.68c-8.952-0.866-17.9,2.048-24.635,7.993c-2.743-3.59-4.376-8.069-4.376-12.928
			c0-11.791,9.592-21.384,21.384-21.384C223.293,81.565,232.886,91.158,232.886,102.949z M384.692,341.77h-0.002
			c0,31.946-18.563,61.454-48.445,77.006c-2.666,1.387-4.249,4.23-4.024,7.226l5.301,70.969h-91.927l5.316-70.967
			c0.225-2.998-1.359-5.841-4.025-7.228c-20.076-10.445-35.367-27.347-43.058-47.593c-12.096-31.841-28.125-60.271-47.644-84.503
			l-3.195-3.967c-4.572-7.953-1.423-15.62,2.727-19.816c4.253-4.302,11.586-7.248,19.407-2.621c3.934,2.329,6.919,5.518,9.123,9.747
			c1.599,3.071,5.088,4.652,8.45,3.827c3.362-0.822,5.727-3.834,5.729-7.295l0.081-126.352c0-4.884,2.097-9.587,5.752-12.905
			c3.693-3.353,8.459-4.935,13.42-4.454c8.811,0.854,15.713,8.732,15.713,17.934v84.708v38.88c0,4.151,3.365,7.515,7.515,7.515
			c4.15,0,7.515-3.364,7.515-7.515v-38.88c0-9.455,8.325-17.443,18.179-17.443c9.618,0,17.443,7.825,17.443,17.443
			c0,0.01,0.001,0.019,0.001,0.029v38.851c0,4.151,3.365,7.515,7.515,7.515c4.15,0,7.515-3.364,7.515-7.515v-38.532
			c0.005-0.116,0.018-0.23,0.018-0.348c0-9.618,7.825-17.443,17.443-17.443c8.689,0,16.039,6.41,17.261,14.979l0.108,41.344
			c0,4.151,3.365,7.515,7.515,7.515s7.515-3.364,7.515-7.515v-24.751c0.936-8.319,8.2-14.814,17-14.814h1.65
			c9.433,0,17.108,7.462,17.108,16.634V341.77z"/>
	</g>
</g>
<g>
</g>
<g>
</g>
<g>
</g>
<g>
</g>
<g>
</g>
<g>
</g>
<g>
</g>
<g>
</g>
<g>
</g>
<g>
</g>
<g>
</g>
<g>
</g>
<g>
</g>
<g>
</g>
<g>
</g>
</svg>
